<?xml version="1.0" encoding="UTF-8" standalone="no"?><!DOCTYPE svg PUBLIC "-//W3C//DTD SVG 1.1//EN" "http://www.w3.org/Graphics/SVG/1.1/DTD/svg11.dtd"><!-- Generated by graphviz version 2.40.1 (20161225.0304)
 --><!-- Title: %0 Pages: 1 --><svg xmlns="http://www.w3.org/2000/svg" xmlns:xlink="http://www.w3.org/1999/xlink" width="199pt" height="260pt" viewBox="0.00 0.00 199.00 260.00">
<g id="graph0" class="graph" transform="scale(1 1) rotate(0) translate(4 256)">
<title>%0</title>
<polygon fill="#ffffff" stroke="transparent" points="-4,4 -4,-256 195,-256 195,4 -4,4"/>
<!-- a -->
<g id="node1" class="node">
<title>a</title>
<ellipse fill="none" stroke="#000000" cx="137" cy="-162" rx="27" ry="18"/>
<text text-anchor="middle" x="137" y="-157.8" font-family="Times,serif" font-size="14.00" fill="#000000">a</text>
</g>
<!-- b -->
<g id="node2" class="node">
<title>b</title>
<ellipse fill="none" stroke="#000000" cx="99" cy="-90" rx="27" ry="18"/>
<text text-anchor="middle" x="99" y="-85.8" font-family="Times,serif" font-size="14.00" fill="#000000">b</text>
</g>
<!-- a&#45;&#45;b -->
<g id="edge1" class="edge">
<title>a--b</title>
<path fill="none" stroke="#000000" d="M127.9945,-144.937C122.0248,-133.626 114.2149,-118.8282 108.2048,-107.4407"/>
</g>
<!-- c -->
<g id="node3" class="node">
<title>c</title>
<ellipse fill="none" stroke="#000000" cx="126" cy="-18" rx="27" ry="18"/>
<text text-anchor="middle" x="126" y="-13.8" font-family="Times,serif" font-size="14.00" fill="#000000">c</text>
</g>
<!-- a&#45;&#45;c -->
<g id="edge3" class="edge">
<title>a--c</title>
<path fill="none" stroke="#000000" d="M137.3574,-143.6842C137.5331,-125.4671 137.3246,-96.7409 135,-72 133.862,-59.8878 131.612,-46.3878 129.6465,-35.9159"/>
</g>
<!-- b&#45;&#45;c -->
<g id="edge2" class="edge">
<title>b--c</title>
<path fill="none" stroke="#000000" d="M105.6742,-72.2022C109.8593,-61.0419 115.2321,-46.7143 119.4026,-35.593"/>
</g>
<!-- d -->
<g id="node4" class="node">
<title>d</title>
<ellipse fill="none" stroke="#000000" cx="27" cy="-90" rx="27" ry="18"/>
<text text-anchor="middle" x="27" y="-85.8" font-family="Times,serif" font-size="14.00" fill="#000000">d</text>
</g>
<!-- d&#45;&#45;c -->
<g id="edge4" class="edge">
<title>d--c</title>
<path fill="none" stroke="#000000" d="M45.6211,-76.4574C63.3208,-63.5849 89.7904,-44.3343 107.4624,-31.4819"/>
</g>
<!-- e -->
<g id="node5" class="node">
<title>e</title>
<ellipse fill="none" stroke="#000000" cx="164" cy="-234" rx="27" ry="18"/>
<text text-anchor="middle" x="164" y="-229.8" font-family="Times,serif" font-size="14.00" fill="#000000">e</text>
</g>
<!-- e&#45;&#45;a -->
<g id="edge6" class="edge">
<title>e--a</title>
<path fill="none" stroke="#000000" d="M157.3258,-216.2022C153.1407,-205.0419 147.7679,-190.7143 143.5974,-179.593"/>
</g>
<!-- e&#45;&#45;c -->
<g id="edge5" class="edge">
<title>e--c</title>
<path fill="none" stroke="#000000" d="M167.7474,-216.0931C169.7466,-205.6241 171.9966,-192.1241 173,-180 177.0478,-131.0908 167.4587,-117.866 150,-72 145.2554,-59.5355 139.1406,-45.8051 134.2707,-35.3087"/>
</g>
</g>
</svg>